<?xml version="1.0" encoding="utf-8"?>
<!-- Generator: Adobe Illustrator 27.9.0, SVG Export Plug-In . SVG Version: 6.00 Build 0)  -->
<svg version="1.1" id="Luno" xmlns="http://www.w3.org/2000/svg" xmlns:xlink="http://www.w3.org/1999/xlink" x="0px" y="0px"
	 viewBox="0 0 947 947" style="enable-background:new 0 0 947 947;" xml:space="preserve">
<style type="text/css">
	.st0{fill:#000080;}
	.st1{fill:#FFFFFF;}
	.st2{fill:none;stroke:#808080;stroke-width:10.8612;stroke-miterlimit:10;stroke-dasharray:40.8475;}
</style>
<path class="st0" d="M835.5,473.6c0-199.8-162.2-362-362-362s-362,162.2-362,362s162.2,362,362,362S835.5,673.4,835.5,473.6"/>
<path class="st1" d="M729.5,323.6c0-58.5-47.5-106-106-106s-106,47.5-106,106s47.5,106,106,106S729.5,382.1,729.5,323.6"/>
<path class="st0" d="M941.5,111.5c0-58.5-47.5-106-106-106s-106,47.5-106,106s47.5,106,106,106S941.5,170.1,941.5,111.5"/>
<g>
	<path class="st1" d="M289.2,640.7c0-4.3,0.7-8.3,2.1-11.9c1.4-3.6,3.5-6.8,6.2-9.6s6.1-4.8,10-6.3c3.9-1.5,8.3-2.2,13.3-2.2
		c4.8,0,9.2,0.8,13.1,2.2c3.9,1.5,7.2,3.6,10,6.3s4.8,5.9,6.3,9.6c1.5,3.6,2.2,7.6,2.2,11.9c0,4.2-0.8,8.1-2.2,11.7
		c-1.5,3.6-3.6,6.8-6.3,9.4c-2.7,2.6-6.1,4.7-10,6.2s-8.3,2.2-13.1,2.2c-5,0-9.4-0.8-13.3-2.2s-7.2-3.5-10-6.2
		c-2.7-2.6-4.8-5.7-6.2-9.4C289.9,648.7,289.2,644.8,289.2,640.7z M345.7,567.8h-49.4l-3.1-185h55.7L345.7,567.8z"/>
	<path class="st1" d="M657.8,527.2H473v-44.5h184.8V527.2z M657.8,611.4H473V567h184.8V611.4z"/>
</g>
<path class="st2" d="M890.6,261c33.5,65.8,51,138.6,51,212.5c0,258.4-209.7,468.1-468.1,468.1S5.4,731.9,5.4,473.5
	S215.1,5.4,473.5,5.4c83.1,0,164.6,22.1,236.2,63.9"/>
</svg>
